<svg id="Layer_1" data-name="Layer 1" xmlns="http://www.w3.org/2000/svg" 
viewBox="-55 0 1500 1050"><defs><style>.cls-1,.cls-3{fill:#e2ae3a;}.cls-2{fill:#231f20;}.cls-3{font-size:150px;font-family:BerlinSansFBDemi-Bold, Berlin Sans FB Demi;font-weight:700;}</style></defs><path class="cls-1" d="M641.89,506.69c-13.67,4.9-48,19-58.8,45.47-17,41.63,37.55,81.2,50,90.22,5.21,3.78,7.82,5.22,32.34,18.86,64,35.59,95.94,53.38,102.92,57.37,71.23,40.74,106.51,61.69,112.61,88.15,11.06,47.88-39.63,93.15-42.43,95.59-41.26,35.88-93.42,31.63-115,29.88-54.26-4.42-85.85-30.43-87.35-27.58-2.11,4,59.68,55.33,137.51,57.38,18.67.5,31.91-1.91,35.74-2.79,54.54-12.55,89.35-53.16,89.35-53.16,9.88-11.53,50.1-58.47,38.55-109.48C929.74,763,903.53,745,861.54,716.13,803.76,676.45,736,652.49,686.35,624.9a339,339,0,0,1-38.29-25.61c-8.9-6.87-14.81-12.19-20.28-18.64-6.29-7.41-13.09-15.66-13.24-26.73,0-2.36.23-5.92,2.55-12.16C620,534,626.35,521.27,641.89,506.69Z" transform="translate(-197.41 -281.3)"/><path class="cls-1" d="M958.44,746c13.67-4.9,48-19,58.8-45.47,17-41.63-37.55-81.2-50-90.22-5.21-3.78-7.82-5.22-32.34-18.86C871,555.89,839,538.1,832,534.11,760.77,493.37,725.49,472.42,719.39,446c-11-47.88,39.63-93.15,42.44-95.59,41.25-35.88,93.42-31.63,114.94-29.88,54.26,4.42,85.85,30.43,87.35,27.58,2.11-4-59.68-55.33-137.51-57.39-18.67-.49-31.91,1.92-35.74,2.8-54.54,12.55-89.35,53.16-89.35,53.16-9.88,11.53-50.1,58.47-38.54,109.48,7.62,33.65,33.82,51.64,75.81,80.47,57.78,39.68,125.53,63.64,175.19,91.23a337.94,337.94,0,0,1,38.29,25.61c8.91,6.87,14.81,12.19,20.29,18.64,6.28,7.41,13.08,15.66,13.23,26.73,0,2.36-.23,5.92-2.55,12.16C980.35,718.73,974,731.45,958.44,746Z" transform="translate(-197.41 -281.3)"/><path class="cls-1" d="M839.63,949.8A208.2,208.2,0,0,0,861,937.52a317.06,317.06,0,0,1-61,5.91h0c-174.61,0-316.67-142.06-316.67-316.67a315,315,0,0,1,25.08-123.51A350.3,350.3,0,0,1,669,302.12c-1.74.7-3.49,1.42-5.22,2.15A350,350,0,0,0,740.9,971.8,213,213,0,0,0,839.63,949.8Z" transform="translate(-197.41 -281.3)"/><path class="cls-1" d="M1122.49,490.52A350,350,0,0,0,856.82,281.33a213,213,0,0,0-98,22,207.87,207.87,0,0,0-22.87,13.26A316.89,316.89,0,0,1,800,310.09c174.61,0,316.67,142.06,316.67,316.67a314.92,314.92,0,0,1-26.29,126.3A362.19,362.19,0,0,1,923.57,954.32q6.38-2.42,12.67-5.07a350.37,350.37,0,0,0,186.25-458.73Z" transform="translate(-197.41 -281.3)"/><rect class="cls-2" x="437.59" y="695.05" width="330" height="58.33" rx="29.17"/><rect class="cls-2" x="452.59" y="759.04" width="300" height="58.33" rx="29.17"/><path class="cls-2" d="M817.34,1171.8H787.86c-31.24-3.46-46-11.79-53.74-19-13.1-12.26-11.92-27-33.52-40.51a86,86,0,0,0-15.6-7.54l230-1.2a91.62,91.62,0,0,0-15.6,8c-21.57,13.87-20.75,28.15-34.68,40.91C857.38,1159.12,844,1167.22,817.34,1171.8Z" transform="translate(-197.41 -281.3)"/><text class="cls-3" transform="translate(258.75 1023.29)">Soft Sisters</text></svg>